# xmcd
# 
# Track frame offsets:
#     150
#     15842
#     33257
#     50402
#     65055
#     81965
#     98457
#     114305
#     132715
#     144365
#     162802
#     181935
#     206147
# 
# Disc length: 2955
# 
# Revision: 3
# Processed by: cddbd v1.5.2PL0 Copyright (c) Steve Scherf et al.
# Submitted via: fre:ac v1.0.17
# 
DISCID=a70b890d
DTITLE=Various Artist - I Believe to My Soul - Session 01
DYEAR=2005
DGENRE=Soul
TTITLE0=Mavis Staples - You Must Have That True Religion
TTITLE1=Billy Preston - Both Ways
TTITLE2=Ann Peebles - Tonight I'll Be Staying Here With You
TTITLE3=Irma Thomas - The Same Love That Made Me Laugh
TTITLE4=Allen Toussaint - Mi Amour
TTITLE5=Mavis Staples - Keep On Pushing
TTITLE6=Billy Preston - As One
TTITLE7=Irma Thomas - Loving Arms
TTITLE8=Allen Toussaint - River Boat
TTITLE9=Mavis Staples and Billy Preston - That's Enough
TTITLE10=Allen Toussaint - Turvalon
TTITLE11=Ann Peebles - When The Candle Burns Low
TTITLE12=Allen Toussaint - We Are One
EXTD=
EXTT0=
EXTT1=
EXTT2=
EXTT3=
EXTT4=
EXTT5=
EXTT6=
EXTT7=
EXTT8=
EXTT9=
EXTT10=
EXTT11=
EXTT12=
PLAYORDER=
